<?xml version="1.0" encoding="utf-8"?>
<!-- Generator: Adobe Illustrator 17.1.0, SVG Export Plug-In . SVG Version: 6.00 Build 0)  -->
<!DOCTYPE svg PUBLIC "-//W3C//DTD SVG 1.1//EN" "http://www.w3.org/Graphics/SVG/1.1/DTD/svg11.dtd">
<svg version="1.1" id="Layer_1" xmlns="http://www.w3.org/2000/svg" xmlns:xlink="http://www.w3.org/1999/xlink" x="0px" y="0px"
	 viewBox="0 0 243.4 243.4" enable-background="new 0 0 243.4 243.4" xml:space="preserve">
<g>
	<g>
		<path d="M121.8,131.5c8.2,4.2,18,11.7,25.4,24.9c0.7,1.2,1.3,2.4,1.9,3.7c0,0,3.1,7.6,3.1,7.6c1.9,5.7,3,11.6,3.2,17.6
			c0,0,0,0,0,0c0,0.1,0,0.1,0,0.2c0,0.8,0.1,1.7,0.1,2.5c0,6.4-1,12.8-3,19c-2.3,0.1-6.3-0.2-8.2-0.7c1.4-3.6,3.5-10.4,3.5-18.9
			c0-0.6,0-1.1,0-1.7c-0.3-7.7-2.3-13.7-3.6-16.8l0,0c-0.9-3.2-3.3-8-3.4-8c-0.1-0.2-0.2-0.5-0.4-0.7c-5.3-9.6-12.1-15.8-18.6-19.8
			c-6.4,4.1-13.1,10.4-18.2,20.1c-0.1,0.2-0.2,0.5-0.4,0.7c0,0-2.4,4.9-3.2,8.1l0,0c-1.2,3.2-3.1,9.2-3.3,16.9c0,0.6,0,1.1,0,1.7
			c0.1,8.5,2.3,15.2,3.8,18.8c-1.9,0.5-5.9,1-8.2,0.8c-2.1-6.2-3.2-12.5-3.3-18.9c0-0.9,0-1.7,0-2.5c0-0.1,0-0.1,0-0.2c0,0,0,0,0,0
			c0.1-6,1.1-11.8,2.9-17.6c0,0,2.9-7.6,3-7.6c0.6-1.2,1.2-2.5,1.8-3.7C104,143.5,113.7,135.9,121.8,131.5z M122.7,243.4
			c8-4.3,17.3-11.7,24.4-24.3c0.5-0.9,1-1.9,1.5-2.8c-1.9-0.1-5.5-0.5-8.1-1.1c0,0.1-0.1,0.1-0.1,0.2c-4.6,8.1-10.5,14.5-17.7,19.2
			c-7.3-4.5-13.4-10.9-18-18.9c0-0.1-0.1-0.1-0.1-0.2c-2.6,0.7-6.1,1.1-8.1,1.3c0.5,0.9,1,1.9,1.5,2.8
			C105.2,232,114.7,239.3,122.7,243.4z M122.2,177.2c3-2,6.1-3.8,9.5-5.2c4.7-2,8.8-2.9,11.5-3.3c-0.6-2.5-1.7-5.2-3.2-7.4
			c-7.1,1.4-13.1,4-17.9,6.7c-4.8-2.7-10.9-5.1-18-6.4c-1.4,2.3-2.5,5-3.1,7.5c2.7,0.4,6.8,1.2,11.6,3.2
			C116,173.6,119.2,175.3,122.2,177.2z M82.9,161.2l-10.1,10.3c5.6-2,11.7-3.1,18.1-3.3c0.1,0,0.2,0,0.3,0c0.8-2.9,1.6-5,2.8-7.7
			c-1.1,0-2.1,0-3.2,0C87.9,160.6,85.4,160.8,82.9,161.2L82.9,161.2z M161.2,160.5c-2.5-0.3-5-0.5-7.8-0.5c-1.1,0-2.2,0-3.2,0.1
			c1.3,2.6,2.1,4.8,2.9,7.6c0.1,0,0.2,0,0.3,0c6.4,0.1,12.5,1,18.1,3L161.2,160.5z M122.4,207.7c4.9,2.8,11.1,5.3,18.5,6.7
			c0,0,0,0,0,0c1.3,0.2,5.4,0.8,8.1,1c0,0,0,0,0,0c1.4,0.1,2.9,0.1,4.4,0.1c18-0.2,30.7-7.1,38.2-12.9c2.6-2,4.7-4,6.5-5.8l-5.5-5.4
			c-1.6,1.6-3.6,3.5-6,5.3c-9.4,7.2-20.6,10.9-33.3,11c-0.2,0-0.4,0-0.6,0v0c0,0-6.6,0-9.7-1h0c-4.4-0.7-12.4-2.8-20.7-8.5
			c-8.2,5.8-16.2,8-20.5,8.8h0c-3.1,1-9.7,1.1-9.7,1.1v0c-0.2,0-0.4,0-0.6,0c-12.6,0.1-23.9-3.4-33.5-10.5c-2.4-1.8-4.5-3.6-6.1-5.2
			l-5.4,5.5c1.8,1.8,4,3.8,6.6,5.7c7.6,5.7,20.4,12.4,38.4,12.2c1.5,0,3-0.1,4.4-0.2c0,0,0,0,0,0c2.7-0.2,6.8-0.9,8.1-1.1
			c0,0,0,0,0,0C111.4,213.2,117.5,210.6,122.4,207.7z"/>
	</g>
	<g>
		<path d="M111.9,121.8c-4.2,8.2-11.7,18-24.9,25.4c-1.2,0.7-2.4,1.3-3.7,1.9c0,0-7.6,3.1-7.6,3.1c-5.7,1.9-11.6,3-17.6,3.2
			c0,0,0,0,0,0c-0.1,0-0.1,0-0.2,0c-0.8,0-1.7,0.1-2.5,0.1c-6.4,0-12.8-1-19-3c-0.1-2.3,0.2-6.3,0.7-8.2c3.6,1.4,10.4,3.5,18.9,3.5
			c0.6,0,1.1,0,1.7,0c7.7-0.3,13.7-2.3,16.8-3.6l0,0c3.2-0.9,8-3.3,8-3.4c0.2-0.1,0.5-0.2,0.7-0.4c9.6-5.3,15.8-12.1,19.8-18.6
			c-4.1-6.4-10.4-13.1-20.1-18.2c-0.2-0.1-0.5-0.2-0.7-0.4c0,0-4.9-2.4-8.1-3.2l0,0c-3.2-1.2-9.2-3.1-16.9-3.3c-0.6,0-1.1,0-1.7,0
			c-8.5,0.1-15.2,2.3-18.8,3.8c-0.5-1.9-1-5.9-0.8-8.2c6.2-2.1,12.5-3.2,18.9-3.3c0.9,0,1.7,0,2.5,0c0.1,0,0.1,0,0.2,0c0,0,0,0,0,0
			c6,0.1,11.8,1.1,17.6,2.9c0,0,7.6,2.9,7.6,3c1.2,0.6,2.5,1.2,3.7,1.8C99.9,104,107.5,113.7,111.9,121.8z M0,122.7
			c4.3,8,11.7,17.3,24.3,24.4c0.9,0.5,1.9,1,2.8,1.5c0.1-1.9,0.5-5.5,1.1-8.1c-0.1,0-0.1-0.1-0.2-0.1c-8.1-4.6-14.6-10.5-19.2-17.7
			c4.5-7.3,10.9-13.4,18.9-18c0.1,0,0.1-0.1,0.2-0.1c-0.7-2.6-1.1-6.1-1.2-8.1c-0.9,0.5-1.9,1-2.8,1.5C11.4,105.2,4.1,114.7,0,122.7
			z M66.2,122.2c2,3,3.8,6.1,5.2,9.5c2,4.7,2.9,8.8,3.3,11.5c2.5-0.6,5.2-1.7,7.4-3.2c-1.4-7.1-4-13.1-6.7-17.9
			c2.7-4.8,5.1-10.9,6.4-18c-2.3-1.4-5-2.5-7.5-3.1c-0.4,2.7-1.2,6.8-3.1,11.6C69.8,116,68.2,119.2,66.2,122.2z M82.3,82.9
			L71.9,72.8c2,5.6,3.1,11.6,3.3,18.1c0,0.1,0,0.2,0,0.3c2.9,0.8,5,1.6,7.7,2.8c0-1.1,0-2.1,0-3.2C82.8,87.9,82.6,85.4,82.3,82.9
			L82.3,82.9z M82.9,161.2c0.3-2.5,0.5-5,0.5-7.8c0-1.1,0-2.2-0.1-3.2c-2.6,1.3-4.8,2.1-7.6,2.9c0,0.1,0,0.2,0,0.3
			c-0.1,6.4-1,12.5-3,18.1L82.9,161.2z M35.7,122.4c-2.8,4.9-5.3,11.1-6.7,18.5c0,0,0,0,0,0c-0.2,1.3-0.8,5.4-1,8.1c0,0,0,0,0,0
			c-0.1,1.4-0.1,2.9-0.1,4.4c0.2,18,7.1,30.7,12.9,38.2c2,2.6,4,4.7,5.8,6.5l5.4-5.5c-1.6-1.6-3.5-3.6-5.3-6
			c-7.2-9.4-10.9-20.6-11-33.3c0-0.2,0-0.4,0-0.6h0c0,0,0-6.6,1-9.7l0,0c0.7-4.3,2.8-12.4,8.5-20.7c-5.8-8.2-8-16.2-8.8-20.5l0,0
			c-1-3.1-1.1-9.7-1.1-9.7h0c0-0.2,0-0.4,0-0.6C35,78.9,38.5,67.6,45.6,58c1.8-2.4,3.6-4.5,5.2-6.1l-5.5-5.4c-1.8,1.8-3.8,4-5.7,6.6
			C34,60.7,27.3,73.5,27.4,91.6c0,1.5,0.1,3,0.2,4.4c0,0,0,0,0,0c0.2,2.7,0.9,6.8,1.1,8.1c0,0,0,0,0,0
			C30.2,111.4,32.8,117.5,35.7,122.4z"/>
	</g>
	<g>
		<path d="M121.6,111.9c-8.2-4.2-18-11.7-25.4-24.9c-0.7-1.2-1.3-2.4-1.9-3.7c0,0-3.1-7.6-3.1-7.6c-1.9-5.7-3-11.6-3.2-17.6
			c0,0,0,0,0,0c0-0.1,0-0.1,0-0.2c0-0.8-0.1-1.7-0.1-2.5c0-6.4,1-12.8,3-19c2.3-0.1,6.3,0.2,8.2,0.7c-1.4,3.6-3.5,10.4-3.5,18.9
			c0,0.6,0,1.1,0,1.7c0.3,7.7,2.3,13.7,3.6,16.8l0,0c0.9,3.2,3.3,8,3.4,8c0.1,0.2,0.2,0.5,0.4,0.7c5.3,9.6,12.1,15.8,18.6,19.8
			c6.4-4.1,13.1-10.4,18.2-20.1c0.1-0.2,0.2-0.5,0.4-0.7c0,0,2.4-4.9,3.2-8.1l0,0c1.2-3.2,3.1-9.2,3.3-16.9c0-0.6,0-1.1,0-1.7
			c-0.1-8.5-2.3-15.2-3.8-18.8c1.9-0.5,5.9-1,8.2-0.8c2.1,6.2,3.2,12.5,3.3,18.9c0,0.9,0,1.7,0,2.5c0,0.1,0,0.1,0,0.2c0,0,0,0,0,0
			c-0.1,6-1.1,11.8-2.9,17.6c0,0-2.9,7.6-3,7.6c-0.6,1.2-1.2,2.5-1.8,3.7C139.4,99.9,129.7,107.5,121.6,111.9z M120.7,0
			c-8,4.3-17.3,11.7-24.4,24.3c-0.5,0.9-1,1.9-1.5,2.8c1.9,0.1,5.5,0.5,8.1,1.1c0-0.1,0.1-0.1,0.1-0.2c4.6-8.1,10.5-14.6,17.7-19.2
			c7.3,4.5,13.4,10.9,18,18.9c0,0.1,0.1,0.1,0.1,0.2c2.6-0.7,6.1-1.1,8.1-1.3c-0.5-0.9-1-1.9-1.5-2.8C138.2,11.4,128.7,4.1,120.7,0z
			 M121.2,66.2c-3,2-6.1,3.8-9.5,5.2c-4.7,2-8.8,2.9-11.5,3.3c0.6,2.5,1.7,5.2,3.2,7.4c7.1-1.4,13.1-4,17.9-6.7
			c4.8,2.7,10.9,5.1,18,6.4c1.4-2.3,2.5-5,3.1-7.5c-2.7-0.4-6.8-1.2-11.6-3.1C127.4,69.8,124.2,68.2,121.2,66.2z M160.5,82.3
			l10.1-10.3c-5.6,2-11.6,3.1-18.1,3.3c-0.1,0-0.2,0-0.3,0c-0.8,2.9-1.6,5-2.8,7.7c1.1,0,2.1,0,3.2,0
			C155.5,82.8,158.1,82.6,160.5,82.3L160.5,82.3z M82.3,82.9c2.5,0.3,5,0.5,7.8,0.5c1.1,0,2.2,0,3.2-0.1c-1.3-2.6-2.1-4.8-2.9-7.6
			c-0.1,0-0.2,0-0.3,0c-6.4-0.1-12.5-1-18.1-3L82.3,82.9z M121,35.7c-4.9-2.8-11.1-5.3-18.5-6.7c0,0,0,0,0,0c-1.3-0.2-5.4-0.8-8.1-1
			c0,0,0,0,0,0c-1.4-0.1-2.9-0.1-4.4-0.1C72,28.1,59.3,35,51.8,40.8c-2.6,2-4.7,4-6.5,5.8l5.5,5.4c1.6-1.6,3.6-3.5,6-5.3
			c9.4-7.2,20.6-10.9,33.3-11c0.2,0,0.4,0,0.6,0v0c0,0,6.6,0,9.7,1l0,0c4.4,0.7,12.4,2.8,20.7,8.5c8.2-5.8,16.2-8,20.5-8.8l0,0
			c3.1-1,9.7-1.1,9.7-1.1v0c0.2,0,0.4,0,0.6,0c12.6-0.1,23.9,3.4,33.5,10.5c2.4,1.8,4.5,3.6,6.1,5.2l5.4-5.5c-1.8-1.8-4-3.8-6.6-5.7
			c-7.6-5.7-20.4-12.4-38.4-12.2c-1.5,0-3,0.1-4.4,0.2c0,0,0,0,0,0c-2.7,0.2-6.8,0.9-8.1,1.1c0,0,0,0,0,0
			C132,30.2,125.9,32.8,121,35.7z"/>
	</g>
	<g>
		<path d="M131.5,121.6c4.2-8.2,11.7-18,24.9-25.4c1.2-0.7,2.4-1.3,3.7-1.9c0,0,7.6-3.1,7.6-3.1c5.7-1.9,11.6-3,17.6-3.2
			c0,0,0,0,0,0c0.1,0,0.1,0,0.2,0c0.8,0,1.7-0.1,2.5-0.1c6.4,0,12.8,1,19,3c0.1,2.3-0.2,6.3-0.7,8.2c-3.6-1.4-10.4-3.5-18.9-3.5
			c-0.6,0-1.1,0-1.7,0c-7.7,0.3-13.7,2.3-16.8,3.6l0,0c-3.2,0.9-8,3.3-8,3.4c-0.2,0.1-0.5,0.2-0.7,0.4c-9.6,5.3-15.8,12.1-19.8,18.6
			c4.1,6.4,10.4,13.1,20.1,18.2c0.2,0.1,0.5,0.2,0.7,0.4c0,0,4.9,2.4,8.1,3.2l0,0c3.2,1.2,9.2,3.1,16.9,3.3c0.6,0,1.1,0,1.7,0
			c8.5-0.1,15.2-2.3,18.8-3.8c0.5,1.9,1,5.9,0.8,8.2c-6.2,2.1-12.5,3.2-18.9,3.3c-0.9,0-1.7,0-2.5,0c-0.1,0-0.1,0-0.2,0c0,0,0,0,0,0
			c-6-0.1-11.8-1.1-17.6-2.9c0,0-7.6-2.9-7.6-3c-1.2-0.6-2.5-1.2-3.7-1.8C143.5,139.4,135.9,129.7,131.5,121.6z M243.4,120.7
			c-4.3-8-11.7-17.3-24.3-24.4c-0.9-0.5-1.9-1-2.8-1.5c-0.1,1.9-0.5,5.5-1.1,8.1c0.1,0,0.1,0.1,0.2,0.1c8.1,4.6,14.6,10.5,19.2,17.7
			c-4.5,7.3-10.9,13.4-18.9,18c-0.1,0-0.1,0.1-0.2,0.1c0.7,2.6,1.1,6.1,1.3,8.1c0.9-0.5,1.9-1,2.8-1.5
			C232,138.2,239.3,128.7,243.4,120.7z M177.2,121.2c-2-3-3.8-6.1-5.2-9.5c-2-4.7-2.9-8.9-3.3-11.5c-2.5,0.6-5.2,1.7-7.4,3.2
			c1.4,7.1,4,13.1,6.7,17.9c-2.7,4.8-5.1,10.9-6.4,18c2.3,1.4,5,2.5,7.5,3.1c0.4-2.7,1.2-6.8,3.1-11.6
			C173.6,127.4,175.3,124.2,177.2,121.2z M161.2,160.5l10.3,10.1c-2-5.6-3.1-11.6-3.3-18.1c0-0.1,0-0.2,0-0.3
			c-2.9-0.8-5-1.6-7.7-2.8c0,1.1,0,2.1,0,3.2C160.6,155.5,160.8,158.1,161.2,160.5L161.2,160.5z M160.5,82.3c-0.3,2.5-0.5,5-0.5,7.8
			c0,1.1,0,2.2,0.1,3.2c2.6-1.3,4.8-2.1,7.6-2.9c0-0.1,0-0.2,0-0.3c0.1-6.4,1-12.5,3-18.1L160.5,82.3z M207.7,121
			c2.8-4.9,5.3-11.1,6.7-18.5c0,0,0,0,0,0c0.2-1.3,0.8-5.4,1-8.1c0,0,0,0,0,0c0.1-1.4,0.1-2.9,0.1-4.4c-0.2-18-7.1-30.7-12.9-38.2
			c-2-2.6-4-4.7-5.8-6.5l-5.4,5.5c1.6,1.6,3.5,3.6,5.3,6c7.2,9.4,10.9,20.6,11,33.3c0,0.2,0,0.4,0,0.6h0c0,0,0,6.6-1,9.7v0
			c-0.7,4.4-2.8,12.4-8.5,20.7c5.8,8.2,8,16.2,8.8,20.5v0c1,3.1,1.1,9.7,1.1,9.7h0c0,0.2,0,0.4,0,0.6c0.1,12.6-3.4,23.9-10.5,33.5
			c-1.8,2.4-3.6,4.5-5.2,6.1l5.5,5.4c1.8-1.8,3.8-4,5.7-6.6c5.7-7.6,12.4-20.4,12.2-38.4c0-1.5-0.1-3-0.2-4.4c0,0,0,0,0,0
			c-0.2-2.7-0.9-6.8-1.1-8.1c0,0,0,0,0,0C213.2,132,210.6,125.9,207.7,121z"/>
	</g>
</g>
</svg>
